<?xml version="1.0" encoding="UTF-8"?>
<svg id="Warstwa_1" data-name="Warstwa 1" xmlns="http://www.w3.org/2000/svg" viewBox="0 0 500.49 459.72" >
  <defs>
    <style>
      .cls-1 {
        stroke: #000;
        stroke-miterlimit: 10;
        stroke-width: .5px;
      }
    </style>
  </defs>
  <path class="cls-1" d="m237.16,292.17c-8.32,10.59-14.83,22.67-19.06,35.75-8.54-10.98-20.97-18.79-35.21-21.37-3.35-.61-6.81-.92-10.33-.92-8.29,0-16.18,1.75-23.31,4.91-1.77.78-3.48,1.65-5.15,2.6-1.83,1.03-3.59,2.17-5.28,3.4-12.8,6.31-27.2,9.86-42.41,9.86-4.16,0-8.27-.27-12.29-.78-6.55-.84-12.89-2.34-18.97-4.43C27.42,308.17.25,272.32.25,230.25s27.3-78.11,65.16-91.03c5.06,12.64,12.31,24.18,21.25,34.16-27.22,4.62-47.95,28.32-47.95,56.87s20.43,51.9,47.36,56.77c3.35.61,6.81.92,10.33.92,8.29,0,16.18-1.75,23.31-4.91,1.86-.82,3.67-1.74,5.42-2.75,1.73-.99,3.41-2.08,5.02-3.25,12.8-6.31,27.2-9.86,42.41-9.86,4.16,0,8.27.27,12.29.78,6.55.84,12.89,2.34,18.97,4.43,12.47,4.3,23.78,11.09,33.35,19.78Z"/>
  <path class="cls-1" d="m237.16,25.24c-8.32,10.59-14.83,22.67-19.06,35.76-10.55-13.57-27.03-22.29-45.55-22.29-31.86,0-57.69,25.83-57.69,57.69,0,7.26,1.35,14.22,3.79,20.61,4.81,12.56,13.88,23.01,25.44,29.57l-.08.14c17.89,10.25,32.2,26.07,40.52,45.08,2.58,5.91,4.59,12.13,5.95,18.58,1.35,6.41,2.06,13.05,2.06,19.85s-.65,12.93-1.91,19.11c-5.9-.93-11.94-1.42-18.09-1.42-7.5,0-14.84.72-21.95,2.09,2.25-6.17,3.48-12.84,3.48-19.78s-1.35-14.22-3.79-20.61c-4.82-12.58-13.92-23.05-25.51-29.61l.08-.15c-17.86-10.24-32.14-26.05-40.45-45.04-2.58-5.91-4.59-12.13-5.95-18.58-1.35-6.41-2.06-13.05-2.06-19.85C76.4,43.38,119.53.25,172.55.25c24.85,0,47.52,9.47,64.61,24.99Z"/>
  <path class="cls-1" d="m424.09,96.4c0,6.81-.71,13.45-2.06,19.85-5.85-.92-11.84-1.39-17.94-1.39-7.61,0-15.05.74-22.25,2.15,2.45-6.4,3.79-13.35,3.79-20.61,0-31.86-25.83-57.69-57.69-57.69-18.52,0-35,8.72-45.55,22.29-7.62,9.77-12.15,22.05-12.15,35.4v.22h-1.54c-.05,21.05-6.89,40.54-18.45,56.37-3.87,5.28-8.25,10.17-13.09,14.57-9.63,8.75-21.04,15.58-33.61,19.87-5.06-12.64-12.31-24.18-21.25-34.16,14.5-2.46,27.15-10.33,35.81-21.47,7.57-9.72,12.09-21.91,12.15-35.18h1.54v-.22c0-21.13,6.85-40.7,18.47-56.59,3.85-5.28,8.24-10.16,13.08-14.56C280.41,9.73,303.09.25,327.94.25c53.01,0,96.15,43.13,96.15,96.15Z"/>
  <path class="cls-1" d="m500.24,230.25c0,42.08-27.18,77.93-64.89,90.93-4.97-12.62-12.1-24.16-20.93-34.16,26.93-4.87,47.36-28.43,47.36-56.77s-20.73-52.25-47.95-56.87c-3.17-.55-6.42-.82-9.74-.82-10.56,0-20.45,2.84-28.97,7.79l-.08-.14c-13.92,7.86-30,12.35-47.1,12.35-4.05,0-8.05-.25-11.98-.75-6.56-.82-12.92-2.3-19.01-4.38-12.57-4.29-23.98-11.12-33.61-19.88,8.32-10.59,14.83-22.67,19.06-35.75,8.65,11.14,21.31,19.01,35.81,21.47,3.17.55,6.42.82,9.74.82,10.11,0,19.61-2.6,27.88-7.18l.09.15c14.18-8.25,30.64-12.97,48.18-12.97,4.05,0,8.05.25,11.98.75,6.56.82,12.92,2.3,19.01,4.38,37.85,12.92,65.16,48.85,65.16,91.03Z"/>
  <path class="cls-1" d="m424.09,363.32c0,53.01-43.14,96.15-96.15,96.15-24.85,0-47.51-9.47-64.6-25,8.32-10.59,14.82-22.67,19.05-35.75,10.55,13.57,27.03,22.29,45.55,22.29,31.86,0,57.69-25.83,57.69-57.69,0-6.95-1.23-13.62-3.48-19.78-3.99-10.94-11.2-20.32-20.48-27.01-1.87-1.35-3.82-2.6-5.85-3.72-1.47-.82-2.98-1.57-4.53-2.25,0,0-.02,0-.02,0-15.68-10.35-28.15-25.16-35.61-42.6-2.54-5.92-4.49-12.15-5.8-18.6-1.25-6.18-1.91-12.57-1.91-19.11s.71-13.45,2.06-19.85c5.85.92,11.84,1.39,17.94,1.39,7.61,0,15.05-.74,22.25-2.15-2.45,6.4-3.79,13.35-3.79,20.61s1.23,13.62,3.48,19.78c3.99,10.94,11.2,20.32,20.48,27.01,1.43,1.04,2.91,2.01,4.43,2.9,1.92,1.14,3.92,2.17,5.98,3.07,0,0,.02,0,.02.02,15.67,10.35,28.13,25.15,35.59,42.58,2.54,5.92,4.49,12.15,5.8,18.6,1.25,6.18,1.91,12.57,1.91,19.11Z"/>
  <path class="cls-1" d="m317.6,306.55c-14.25,2.58-26.68,10.38-35.21,21.37-7.57,9.72-12.09,21.91-12.15,35.18h-1.54v.22c0,21.13-6.85,40.7-18.45,56.58h0c-3.88,5.3-8.25,10.18-13.09,14.57-17.08,15.53-39.76,25-64.61,25-53.02,0-96.15-43.14-96.15-96.15,0-6.54.65-12.93,1.91-19.11,5.9.93,11.94,1.42,18.09,1.42,7.5,0,14.84-.72,21.95-2.09-2.25,6.17-3.48,12.84-3.48,19.78,0,31.86,25.83,57.69,57.69,57.69,18.52,0,35-8.72,45.55-22.29,7.62-9.77,12.15-22.05,12.15-35.4v-.22h1.54c.05-21.05,6.89-40.53,18.47-56.36h0c3.85-5.3,8.25-10.18,13.08-14.57,9.56-8.69,20.88-15.48,33.34-19.78,4.97,12.62,12.1,24.16,20.93,34.16Z"/>
</svg>